<svg width="375.2px" height="128.039990234375px" xmlns="http://www.w3.org/2000/svg" viewBox="62.400000000000006 10.980004882812494 375.2 128.039990234375" style="background: rgba(0, 0, 0, 0) none repeat scroll 0% 0%;" preserveAspectRatio="xMidYMid"><defs><linearGradient id="editing-outline-gradient" x1="-0.41354545764260087" x2="1.4135454576426008" y1="0.09326335692419985" y2="0.9067366430758002"><stop offset="0" stop-color="#ee4208"></stop><stop offset="1" stop-color="#4139ff"></stop></linearGradient><filter id="editing-outline" x="-100%" y="-100%" width="300%" height="300%"><feMorphology in="SourceGraphic" operator="dilate" radius="1" result="outline"></feMorphology><feComposite operator="out" in="outline" in2="SourceAlpha"></feComposite></filter></defs><g filter="url(#editing-outline)"><g transform="translate(119.37500429153442, 103.77000045776367)"><path d="M6.85 0L6.85 0Q6.02 0 6.02-0.83L6.02-0.83L6.02-43.97L6.02-43.97Q6.02-44.80 6.85-44.80L6.85-44.80L9.86-44.80L9.86-44.80Q10.43-44.80 10.82-44.22L10.82-44.22L22.53-25.73L22.53-25.73Q22.72-25.34 22.91-25.73L22.91-25.73L34.69-44.22L34.69-44.22Q35.07-44.80 35.65-44.80L35.65-44.80L38.66-44.80L38.66-44.80Q39.49-44.80 39.49-43.97L39.49-43.97L39.49-0.83L39.49-0.83Q39.49 0 38.66 0L38.66 0L35.78 0L35.78 0Q34.94 0 34.94-0.83L34.94-0.83L34.94-36.16L34.94-36.16Q34.94-36.42 34.82-36.42L34.82-36.42L34.82-36.42Q34.69-36.42 34.56-36.22L34.56-36.22L24.45-20.22L24.45-20.22Q24.06-19.65 23.49-19.65L23.49-19.65L22.02-19.65L22.02-19.65Q21.44-19.65 21.06-20.22L21.06-20.22L10.94-36.22L10.94-36.22Q10.82-36.42 10.69-36.42L10.69-36.42L10.69-36.42Q10.56-36.42 10.56-36.16L10.56-36.16L10.56-0.83L10.56-0.83Q10.56 0 9.73 0L9.73 0L6.85 0ZM63.23-3.39L63.23-3.39Q66.11-3.46 68.19-4.70L68.19-4.70L68.19-4.70Q70.27-5.95 71.42-8.19L71.42-8.19L71.42-8.19Q71.55-8.51 71.87-8.64L71.87-8.64L71.87-8.64Q72.19-8.77 72.51-8.58L72.51-8.58L74.37-7.55L74.37-7.55Q75.14-7.10 74.75-6.46L74.75-6.46L74.75-6.46Q73.22-3.26 70.14-1.38L70.14-1.38L70.14-1.38Q67.07 0.51 62.85 0.51L62.85 0.51L62.85 0.51Q58.37 0.51 55.30-1.60L55.30-1.60L55.30-1.60Q52.22-3.71 50.88-7.49L50.88-7.49L50.88-7.49Q49.66-10.69 49.66-16.32L49.66-16.32L49.66-16.32Q49.66-19.07 49.76-20.70L49.76-20.70L49.76-20.70Q49.86-22.34 50.24-23.74L50.24-23.74L50.24-23.74Q51.33-27.90 54.62-30.40L54.62-30.40L54.62-30.40Q57.92-32.90 62.59-32.90L62.59-32.90L62.59-32.90Q68.16-32.90 71.33-30.02L71.33-30.02L71.33-30.02Q74.50-27.14 75.39-21.89L75.39-21.89L75.39-21.89Q75.78-19.84 75.78-15.49L75.78-15.49L75.78-15.49Q75.78-14.66 74.94-14.66L74.94-14.66L54.46-14.66L54.46-14.66Q54.14-14.66 54.14-14.34L54.14-14.34L54.14-14.34Q54.14-11.14 54.53-9.66L54.53-9.66L54.53-9.66Q55.23-6.78 57.50-5.09L57.50-5.09L57.50-5.09Q59.78-3.39 63.23-3.39L63.23-3.39ZM62.59-28.93L62.59-28.93Q59.39-28.93 57.34-27.30L57.34-27.30L57.34-27.30Q55.30-25.66 54.66-22.91L54.66-22.91L54.66-22.91Q54.27-21.63 54.14-18.56L54.14-18.56L54.14-18.56Q54.14-18.24 54.46-18.24L54.46-18.24L70.91-18.24L70.91-18.24Q71.23-18.24 71.23-18.56L71.23-18.56L71.23-18.56Q71.10-21.38 70.85-22.66L70.85-22.66L70.85-22.66Q70.14-25.54 68-27.23L68-27.23L68-27.23Q65.86-28.93 62.59-28.93L62.59-28.93ZM99.33-29.44L99.33-29.44Q99.33-28.61 98.50-28.61L98.50-28.61L91.52-28.61L91.52-28.61Q91.20-28.61 91.20-28.29L91.20-28.29L91.20-9.60L91.20-9.60Q91.20-6.53 92.58-5.28L92.58-5.28L92.58-5.28Q93.95-4.03 96.90-4.03L96.90-4.03L98.30-4.03L98.30-4.03Q99.14-4.03 99.14-3.20L99.14-3.20L99.14-0.96L99.14-0.96Q99.14-0.13 98.30-0.06L98.30-0.06L96.13-0.06L96.13-0.06Q91.52-0.06 89.15-1.79L89.15-1.79L89.15-1.79Q86.78-3.52 86.78-8.19L86.78-8.19L86.78-28.29L86.78-28.29Q86.78-28.61 86.46-28.61L86.46-28.61L82.82-28.61L82.82-28.61Q81.98-28.61 81.98-29.44L81.98-29.44L81.98-31.55L81.98-31.55Q81.98-32.38 82.82-32.38L82.82-32.38L86.46-32.38L86.46-32.38Q86.78-32.38 86.78-32.70L86.78-32.70L86.78-39.87L86.78-39.87Q86.78-40.70 87.62-40.70L87.62-40.70L90.37-40.70L90.37-40.70Q91.20-40.70 91.20-39.87L91.20-39.87L91.20-32.70L91.20-32.70Q91.20-32.38 91.52-32.38L91.52-32.38L98.50-32.38L98.50-32.38Q99.33-32.38 99.33-31.55L99.33-31.55L99.33-29.44ZM119.30-32.90L119.30-32.90Q125.06-32.90 128.22-29.95L128.22-29.95L128.22-29.95Q131.39-27.01 131.39-22.14L131.39-22.14L131.39-0.83L131.39-0.83Q131.39 0 130.56 0L130.56 0L127.68 0L127.68 0Q126.85 0 126.85-0.83L126.85-0.83L126.85-3.14L126.85-3.14Q126.85-3.33 126.72-3.39L126.72-3.39L126.72-3.39Q126.59-3.46 126.46-3.26L126.46-3.26L126.46-3.26Q124.74-1.41 122.14-0.45L122.14-0.45L122.14-0.45Q119.55 0.51 116.48 0.51L116.48 0.51L116.48 0.51Q112 0.51 108.96-1.79L108.96-1.79L108.96-1.79Q105.92-4.10 105.92-8.83L105.92-8.83L105.92-8.83Q105.92-13.63 109.41-16.42L109.41-16.42L109.41-16.42Q112.90-19.20 119.10-19.20L119.10-19.20L126.53-19.20L126.53-19.20Q126.85-19.20 126.85-19.52L126.85-19.52L126.85-21.89L126.85-21.89Q126.85-25.15 125.02-27.04L125.02-27.04L125.02-27.04Q123.20-28.93 119.36-28.93L119.36-28.93L119.36-28.93Q116.35-28.93 114.43-27.78L114.43-27.78L114.43-27.78Q112.51-26.62 112-24.58L112-24.58L112-24.58Q111.81-23.81 111.04-23.94L111.04-23.94L107.90-24.32L107.90-24.32Q107.07-24.45 107.14-25.02L107.14-25.02L107.14-25.02Q107.78-28.54 111.07-30.72L111.07-30.72L111.07-30.72Q114.37-32.90 119.30-32.90L119.30-32.90ZM117.50-3.39L117.50-3.39Q121.28-3.39 124.06-5.28L124.06-5.28L124.06-5.28Q126.85-7.17 126.85-10.37L126.85-10.37L126.85-15.30L126.85-15.30Q126.85-15.62 126.53-15.62L126.53-15.62L119.81-15.62L119.81-15.62Q115.58-15.62 113.02-13.89L113.02-13.89L113.02-13.89Q110.46-12.16 110.46-9.09L110.46-9.09L110.46-9.09Q110.46-6.27 112.45-4.83L112.45-4.83L112.45-4.83Q114.43-3.39 117.50-3.39L117.50-3.39ZM164.29-23.36L164.29-23.36Q163.90-23.17 164.29-22.98L164.29-22.98L164.29-22.98Q167.68-21.57 169.44-18.82L169.44-18.82L169.44-18.82Q171.20-16.06 171.20-12.16L171.20-12.16L171.20-12.16Q171.20-6.40 167.52-3.20L167.52-3.20L167.52-3.20Q163.84 0 157.82 0L157.82 0L142.53 0L142.53 0Q141.70 0 141.70-0.83L141.70-0.83L141.70-43.97L141.70-43.97Q141.70-44.80 142.53-44.80L142.53-44.80L157.38-44.80L157.38-44.80Q163.58-44.80 167.14-41.73L167.14-41.73L167.14-41.73Q170.69-38.66 170.69-33.09L170.69-33.09L170.69-33.09Q170.69-29.57 169.06-27.14L169.06-27.14L169.06-27.14Q167.42-24.70 164.29-23.36L164.29-23.36ZM146.56-40.83L146.56-40.83Q146.24-40.83 146.24-40.51L146.24-40.51L146.24-25.28L146.24-25.28Q146.24-24.96 146.56-24.96L146.56-24.96L157.38-24.96L157.38-24.96Q161.41-24.96 163.81-27.07L163.81-27.07L163.81-27.07Q166.21-29.18 166.21-32.70L166.21-32.70L166.21-32.70Q166.21-36.42 163.81-38.62L163.81-38.62L163.81-38.62Q161.41-40.83 157.38-40.83L157.38-40.83L146.56-40.83ZM157.82-4.03L157.82-4.03Q161.86-4.03 164.26-6.34L164.26-6.34L164.26-6.34Q166.66-8.64 166.66-12.54L166.66-12.54L166.66-12.54Q166.66-16.45 164.19-18.78L164.19-18.78L164.19-18.78Q161.73-21.12 157.57-21.12L157.57-21.12L146.56-21.12L146.56-21.12Q146.24-21.12 146.24-20.80L146.24-20.80L146.24-4.35L146.24-4.35Q146.24-4.03 146.56-4.03L146.56-4.03L157.82-4.03ZM181.76 0L181.76 0Q180.93 0 180.93-0.83L180.93-0.83L180.93-43.97L180.93-43.97Q180.93-44.80 181.76-44.80L181.76-44.80L184.64-44.80L184.64-44.80Q185.47-44.80 185.47-43.97L185.47-43.97L185.47-0.83L185.47-0.83Q185.47 0 184.64 0L184.64 0L181.76 0ZM208.19 0.51L208.19 0.51Q203.52 0.51 200.22-1.86L200.22-1.86L200.22-1.86Q196.93-4.22 195.65-8.38L195.65-8.38L195.65-8.38Q194.75-11.33 194.75-16.26L194.75-16.26L194.75-16.26Q194.75-21.12 195.58-24.06L195.58-24.06L195.58-24.06Q196.86-28.16 200.16-30.53L200.16-30.53L200.16-30.53Q203.46-32.90 208.19-32.90L208.19-32.90L208.19-32.90Q212.80-32.90 216.10-30.53L216.10-30.53L216.10-30.53Q219.39-28.16 220.61-24.13L220.61-24.13L220.61-24.13Q221.50-21.06 221.50-16.26L221.50-16.26L221.50-16.26Q221.50-11.33 220.61-8.38L220.61-8.38L220.61-8.38Q219.33-4.22 216.03-1.86L216.03-1.86L216.03-1.86Q212.74 0.51 208.19 0.51L208.19 0.51ZM208.19-3.46L208.19-3.46Q211.26-3.46 213.44-5.15L213.44-5.15L213.44-5.15Q215.62-6.85 216.38-9.73L216.38-9.73L216.38-9.73Q216.90-11.78 216.90-16.19L216.90-16.19L216.90-16.19Q216.90-20.80 216.38-22.66L216.38-22.66L216.38-22.66Q215.68-25.54 213.47-27.23L213.47-27.23L213.47-27.23Q211.26-28.93 208.06-28.93L208.06-28.93L208.06-28.93Q204.99-28.93 202.82-27.23L202.82-27.23L202.82-27.23Q200.64-25.54 199.87-22.66L199.87-22.66L199.87-22.66Q199.36-20.80 199.36-16.19L199.36-16.19L199.36-16.19Q199.36-11.58 199.87-9.73L199.87-9.73L199.87-9.73Q200.58-6.85 202.78-5.15L202.78-5.15L202.78-5.15Q204.99-3.46 208.19-3.46L208.19-3.46ZM250.69-31.55L250.69-31.55Q250.69-32.38 251.52-32.38L251.52-32.38L254.40-32.38L254.40-32.38Q255.23-32.38 255.23-31.55L255.23-31.55L255.23-1.09L255.23-1.09Q255.23 6.08 251.07 9.41L251.07 9.41L251.07 9.41Q246.91 12.74 239.74 12.74L239.74 12.74L239.74 12.74Q238.40 12.74 237.70 12.67L237.70 12.67L237.70 12.67Q236.86 12.61 236.86 11.78L236.86 11.78L236.99 9.22L236.99 9.22Q236.99 8.32 237.82 8.45L237.82 8.45L237.82 8.45Q244.61 8.77 247.65 6.46L247.65 6.46L247.65 6.46Q250.69 4.16 250.69-1.22L250.69-1.22L250.69-3.46L250.69-3.46Q250.69-3.65 250.56-3.71L250.56-3.71L250.56-3.71Q250.43-3.78 250.30-3.58L250.30-3.58L250.30-3.58Q247.36 0.19 241.98 0.19L241.98 0.19L241.98 0.19Q237.82 0.19 234.59-2.05L234.59-2.05L234.59-2.05Q231.36-4.29 230.27-8.38L230.27-8.38L230.27-8.38Q229.50-11.01 229.50-16.19L229.50-16.19L229.50-16.19Q229.50-19.01 229.66-20.93L229.66-20.93L229.66-20.93Q229.82-22.85 230.34-24.38L230.34-24.38L230.34-24.38Q231.49-28.22 234.50-30.56L234.50-30.56L234.50-30.56Q237.50-32.90 241.73-32.90L241.73-32.90L241.73-32.90Q247.30-32.90 250.30-29.25L250.30-29.25L250.30-29.25Q250.43-29.06 250.56-29.12L250.56-29.12L250.56-29.12Q250.69-29.18 250.69-29.38L250.69-29.38L250.69-31.55ZM250.37-9.79L250.37-9.79Q250.56-10.75 250.62-12.16L250.62-12.16L250.62-12.16Q250.69-13.57 250.69-16.26L250.69-16.26L250.69-16.26Q250.69-19.52 250.62-20.64L250.62-20.64L250.62-20.64Q250.56-21.76 250.30-22.72L250.30-22.72L250.30-22.72Q249.79-25.41 247.78-27.17L247.78-27.17L247.78-27.17Q245.76-28.93 242.69-28.93L242.69-28.93L242.69-28.93Q239.68-28.93 237.60-27.20L237.60-27.20L237.60-27.20Q235.52-25.47 234.69-22.72L234.69-22.72L234.69-22.72Q234.05-20.67 234.05-16.32L234.05-16.32L234.05-16.32Q234.05-11.65 234.69-9.86L234.69-9.86L234.69-9.86Q235.33-7.17 237.47-5.41L237.47-5.41L237.47-5.41Q239.62-3.65 242.69-3.65L242.69-3.65L242.69-3.65Q245.82-3.65 247.84-5.38L247.84-5.38L247.84-5.38Q249.86-7.10 250.37-9.79L250.37-9.79Z" fill="url(#editing-outline-gradient)"></path></g></g><style>text {
  font-size: 64px;
  font-family: Arial Black;
  dominant-baseline: central;
  text-anchor: middle;
}</style></svg>